<svg width="130" height="27" viewBox="0 0 130 27" fill="none" xmlns="http://www.w3.org/2000/svg">
<g clip-path="url(#clip0_2223_12387)">
<path d="M19.1548 0H6.60821C2.95859 0 0 3.04313 0 6.79701V19.7021C0 23.4559 2.95859 26.4991 6.60821 26.4991H19.1548C22.8044 26.4991 25.763 23.4559 25.763 19.7021V6.79701C25.763 3.04313 22.8044 0 19.1548 0Z" fill="#523463"/>
<path d="M56.7816 21.0404V21.0934C56.7816 21.3849 56.6206 21.5307 56.305 21.5307H53.2392C52.9043 21.5307 52.7304 21.3651 52.7175 21.0404L53.0653 12.4216L49.3361 21.1001C49.3232 21.1729 49.2717 21.2657 49.1815 21.3651C49.0914 21.471 49.0012 21.524 48.9175 21.524H46.0642C45.9805 21.524 45.8839 21.471 45.7873 21.3717C45.6907 21.2723 45.6391 21.1796 45.6327 21.1001L41.9035 12.4481L42.2513 21.0471C42.2384 21.3717 42.0581 21.5373 41.7167 21.5373H38.6509C38.3418 21.5373 38.1872 21.3717 38.1872 21.0471V5.45898C38.2001 5.32649 38.2516 5.20724 38.3418 5.11449C38.4319 5.02175 38.5543 4.96875 38.7089 4.96875H42.4638C42.7279 4.96875 42.9018 5.10787 42.9855 5.39274L47.4876 15.522L52.009 5.39274C52.1121 5.10787 52.2924 4.96875 52.5629 4.96875H56.2728C56.4016 4.96875 56.5176 5.01512 56.627 5.10787C56.7301 5.20062 56.7945 5.31986 56.8074 5.45898" fill="#523463"/>
<path d="M20.327 19.4835V19.5298C20.327 19.7617 20.1982 19.881 19.947 19.881H17.4931C17.229 19.881 17.0873 19.7485 17.0744 19.4901L17.3514 12.5937L14.3693 19.5365C14.3564 19.5961 14.3178 19.669 14.2405 19.7485C14.1697 19.8346 14.0988 19.8743 14.028 19.8743H11.7479C11.6771 19.8743 11.6062 19.8346 11.5289 19.7551C11.4517 19.6756 11.4066 19.6027 11.4001 19.5365L8.41807 12.6136L8.69502 19.4901C8.68214 19.7551 8.54044 19.881 8.26993 19.881H5.81601C5.56482 19.881 5.44244 19.7485 5.44244 19.4901V7.01565C5.45533 6.90965 5.49397 6.81691 5.56482 6.73741C5.63567 6.65791 5.73228 6.61816 5.86109 6.61816H8.86248C9.07502 6.61816 9.21672 6.73079 9.28113 6.95603L12.8815 15.0581L16.5012 6.95603C16.5849 6.73079 16.7266 6.61816 16.9456 6.61816H19.9148C20.0179 6.61816 20.1145 6.65791 20.1982 6.73079C20.2819 6.80366 20.327 6.8964 20.3399 7.00903" fill="#F1EBF4"/>
<path d="M93.1332 21.0404V21.0934C93.1332 21.3849 92.9722 21.5307 92.6566 21.5307H89.5908C89.2559 21.5307 89.0819 21.3651 89.0691 21.0404L89.4169 12.4216L85.6877 21.1001C85.6748 21.1729 85.6233 21.2657 85.5331 21.3651C85.4429 21.471 85.3528 21.524 85.269 21.524H82.4158C82.3321 21.524 82.2354 21.471 82.1388 21.3717C82.0422 21.2723 81.9907 21.1796 81.9843 21.1001L78.2551 12.4481L78.6029 21.0471C78.59 21.3717 78.4096 21.5373 78.0683 21.5373H75.0025C74.6933 21.5373 74.5388 21.3717 74.5388 21.0471V5.45898C74.5516 5.32649 74.6032 5.20724 74.6933 5.11449C74.7835 5.02175 74.9059 4.96875 75.0605 4.96875H78.8154C79.0795 4.96875 79.2534 5.10787 79.3371 5.39274L83.8392 15.522L88.3606 5.39274C88.4636 5.10787 88.644 4.96875 88.9145 4.96875H92.6244C92.7532 4.96875 92.8691 5.01512 92.9786 5.10787C93.0817 5.20062 93.1461 5.31986 93.1589 5.45898" fill="#523463"/>
<path d="M130 21.0404V21.0934C130 21.3849 129.839 21.5307 129.523 21.5307H126.458C126.123 21.5307 125.949 21.3651 125.936 21.0404L126.284 12.4216L122.555 21.1001C122.542 21.1729 122.49 21.2657 122.4 21.3651C122.31 21.471 122.22 21.524 122.136 21.524H119.283C119.199 21.524 119.102 21.471 119.006 21.3717C118.909 21.2723 118.858 21.1796 118.851 21.1001L115.122 12.4481L115.47 21.0471C115.457 21.3717 115.276 21.5373 114.935 21.5373H111.869C111.56 21.5373 111.406 21.3717 111.406 21.0471V5.45898C111.418 5.32649 111.47 5.20724 111.56 5.11449C111.65 5.02175 111.773 4.96875 111.927 4.96875H115.682C115.946 4.96875 116.12 5.10787 116.204 5.39274L120.706 15.522L125.227 5.39274C125.33 5.10787 125.511 4.96875 125.781 4.96875H129.491C129.62 4.96875 129.736 5.01512 129.845 5.10787C129.948 5.20062 130.013 5.31986 130.026 5.45898" fill="#523463"/>
<path d="M65.7922 11.0829L68.4136 5.31931C68.4587 5.23319 68.4909 5.16694 68.5231 5.12719C68.5488 5.08744 68.581 5.05432 68.6068 5.04107C68.6326 5.02782 68.6648 5.01457 68.697 5.00794C68.7292 5.00794 68.7678 4.99469 68.8129 4.98145H72.9865C73.038 4.98145 73.0767 5.00132 73.1089 5.03444C73.1411 5.06757 73.1604 5.10732 73.1604 5.15369C73.1604 5.23319 73.1089 5.32593 73.0058 5.43193L67.8661 14.7861V21.02C67.8661 21.3711 67.6987 21.5434 67.3702 21.5434H64.124C63.9823 21.5434 63.8664 21.497 63.7891 21.4042C63.7118 21.3115 63.6732 21.1856 63.6732 21.02V14.7662L58.5464 5.43193C58.4497 5.33256 58.4047 5.23981 58.4047 5.15369C58.4047 5.10732 58.4175 5.06757 58.4497 5.03444C58.4755 5.00132 58.5206 4.98145 58.5657 4.98145H62.7393C62.7908 4.99469 62.8295 5.00794 62.8617 5.00794C62.8874 5.00794 62.9196 5.02119 62.9454 5.04107C62.9712 5.06094 63.0034 5.08744 63.0291 5.12719C63.0549 5.16694 63.1 5.23319 63.1451 5.31931L65.7858 11.0829H65.7922Z" fill="#523463"/>
<path d="M110.253 21.0272L104.559 5.92934L104.289 5.29336C104.243 5.23374 104.179 5.16749 104.095 5.088C104.012 5.0085 103.902 4.96875 103.78 4.96875H101.004C100.946 4.96875 100.881 4.982 100.817 5.0085C100.753 5.035 100.688 5.06812 100.63 5.11449C100.572 5.16087 100.521 5.20724 100.482 5.26024C100.443 5.31324 100.418 5.35961 100.411 5.40598L94.5244 21.0868C94.4664 21.2326 94.4857 21.3452 94.5759 21.4247C94.6661 21.4975 94.782 21.5373 94.9173 21.5373H98.1183C98.3953 21.5373 98.5756 21.3982 98.6722 21.1266C98.8075 20.7489 98.9492 20.3713 99.0909 19.9937C99.2326 19.6161 99.3743 19.2385 99.5095 18.8609L100.727 15.2835C100.862 14.9059 101.004 14.4952 101.145 14.0646C101.287 13.6273 101.422 13.1901 101.564 12.7462C101.699 12.3024 101.841 11.8585 101.983 11.4213C102.124 10.984 102.26 10.5733 102.401 10.1957L104.063 15.2901L105.28 18.8675C105.416 19.2451 105.557 19.6227 105.693 20.0003C105.828 20.378 105.97 20.7556 106.118 21.1332C106.169 21.2789 106.24 21.3849 106.33 21.4512C106.42 21.5174 106.549 21.5439 106.717 21.5439H109.828C110.021 21.5439 110.163 21.4975 110.24 21.4048C110.317 21.3121 110.33 21.1928 110.272 21.0404L110.253 21.0272Z" fill="#523463"/>
</g>
<defs>
<clipPath id="clip0_2223_12387">
<rect width="130" height="26.4991" fill="white"/>
</clipPath>
</defs>
</svg>
